<svg id="Layer_1" data-name="Layer 1" xmlns="http://www.w3.org/2000/svg" viewBox="0 0 600 192.4"><defs><style>.cls-1{fill:#4d4d4d;}.cls-2{fill:#fff;}</style></defs><rect class="cls-1" width="600" height="192.4" rx="32.07"/><path class="cls-2" d="M262.89,101.74a19,19,0,1,0,19.08,19A18.75,18.75,0,0,0,262.89,101.74Zm0,30.54c-5.77,0-10.74-4.75-10.74-11.52s5-11.53,10.74-11.53,10.73,4.68,10.73,11.53S268.65,132.28,262.89,132.28Z"/><polygon class="cls-2" points="553.14 102.86 543.58 127.09 543.29 127.09 533.37 102.86 524.38 102.86 539.26 136.73 530.78 155.57 539.48 155.57 562.42 102.86 553.14 102.86"/><path class="cls-2" d="M506.84,101.64c-6,0-12.3,2.66-14.89,8.56l7.41,3.09c1.58-3.09,4.53-4.1,7.62-4.1,4.31,0,8.7,2.59,8.77,7.19V117a18.48,18.48,0,0,0-8.7-2.15c-8,0-16.11,4.38-16.11,12.58,0,7.48,6.55,12.3,13.88,12.3,5.61,0,8.7-2.52,10.64-5.47h.29v4.32h8.06V117.1C523.81,107.18,516.4,101.64,506.84,101.64Zm-1,30.63c-2.73,0-6.55-1.37-6.55-4.75,0-4.31,4.75-6,8.85-6a14.83,14.83,0,0,1,7.62,1.87A10.11,10.11,0,0,1,505.83,132.27Z"/><path class="cls-2" d="M213.35,107.58v8.06h19.31c-.58,4.54-2.09,7.85-4.4,10.16-2.81,2.81-7.2,5.91-14.91,5.91a21.47,21.47,0,0,1,0-42.93,20.57,20.57,0,0,1,14.55,5.76l5.69-5.69a28.12,28.12,0,0,0-20.24-8.14c-16.28,0-30,13.25-30,29.53s13.68,29.53,30,29.53c8.79,0,15.42-2.88,20.6-8.28,5.33-5.33,7-12.82,7-18.87a26.17,26.17,0,0,0-.43-5Z"/><path class="cls-2" d="M455.06,82.73h-20v55.89h8.34V117.44h11.65c9.25,0,18.34-6.69,18.34-17.35S464.31,82.73,455.06,82.73Zm.22,26.94H443.41V90.51h11.87a9.58,9.58,0,1,1,0,19.16Z"/><rect class="cls-2" x="478" y="82.73" width="8.34" height="55.89"/><path class="cls-2" d="M304.53,101.74a19,19,0,1,0,19.08,19A18.75,18.75,0,0,0,304.53,101.74Zm0,30.54c-5.77,0-10.74-4.75-10.74-11.52s5-11.53,10.74-11.53,10.73,4.68,10.73,11.53S310.29,132.28,304.53,132.28Z"/><path class="cls-2" d="M415.92,113.84c-1.58-4.25-6.41-12.1-16.27-12.1s-17.94,7.71-17.94,19a18.61,18.61,0,0,0,18.87,19,18.93,18.93,0,0,0,15.85-8.42L410,127c-2.17,3.17-5.12,5.26-9.37,5.26a9.67,9.67,0,0,1-9.22-5.76L416.79,116ZM390,120.18a10.43,10.43,0,0,1,9.94-11.09c3.32,0,6.13,1.66,7.06,4Z"/><rect class="cls-2" x="369.32" y="82.73" width="8.36" height="55.89"/><path class="cls-2" d="M355.64,106h-.29a13.21,13.21,0,0,0-10-4.25c-9.51,0-18.23,8.36-18.23,19.09s8.72,18.94,18.23,18.94a13,13,0,0,0,10-4.32h.29v2.74c0,7.27-3.89,11.16-10.16,11.16-5.11,0-8.28-3.67-9.58-6.77l-7.28,3a18.13,18.13,0,0,0,16.86,11.23c9.8,0,18.08-5.76,18.08-19.8V102.89h-7.92Zm-9.58,26.29c-5.77,0-10.59-4.82-10.59-11.45s4.82-11.6,10.59-11.6,10.15,4.9,10.15,11.6S351.75,132.28,346.06,132.28Z"/><path class="cls-2" d="M198.53,62.54C206.05,62.54,211,58.19,211,49H199.45V52h7.48c-.23,4.36-3.66,7.11-8.4,7.11a9.83,9.83,0,0,1-9.73-10.08A9.86,9.86,0,0,1,198.53,39a9.59,9.59,0,0,1,6.34,2.44L207.43,39a13,13,0,0,0-8.9-3.48,13.5,13.5,0,0,0,0,27Z"/><polygon class="cls-2" points="231.79 58.84 219.38 58.84 219.38 50.9 229.88 50.9 229.88 47.58 219.38 47.58 219.38 39.18 231.41 39.18 231.41 35.86 215.83 35.86 215.83 62.16 231.79 62.16 231.79 58.84"/><polygon class="cls-2" points="246.45 62.16 246.45 39.22 254.43 39.22 254.43 35.86 234.88 35.86 234.88 39.22 242.86 39.22 242.86 62.16 246.45 62.16"/><rect class="cls-2" x="267.91" y="35.86" width="3.55" height="26.3"/><polygon class="cls-2" points="287.68 62.16 287.68 39.22 295.66 39.22 295.66 35.86 276.12 35.86 276.12 39.22 284.1 39.22 284.1 62.16 287.68 62.16"/><path class="cls-2" d="M320.71,62.54a13.5,13.5,0,1,0-13.29-13.47A13.33,13.33,0,0,0,320.71,62.54Zm0-23.55a10.06,10.06,0,0,1,0,20.12,9.79,9.79,0,0,1-9.73-10A9.82,9.82,0,0,1,320.71,39Z"/><polygon class="cls-2" points="343.09 42.35 355.07 62.16 358.47 62.16 358.47 35.86 354.92 35.86 354.92 55.52 343.05 35.86 339.54 35.86 339.54 62.16 343.09 62.16 343.09 42.35"/><path class="cls-2" d="M104.56,91.55l17.33-17.33L58.08,38c-2.94-1.66-5.61-1.89-7.63-.93Z"/><path class="cls-2" d="M48.07,39.18a9.86,9.86,0,0,0-1.34,5.33v98.8a10.16,10.16,0,0,0,1.12,5l54.44-54.45Z"/><path class="cls-2" d="M145.19,87.46l-20.41-11.6-18,18,18,18.12,20.4-11.59C151.44,96.81,151.44,91,145.19,87.46Z"/><path class="cls-2" d="M104.55,96.1,50.06,150.58c2.06,1.19,4.89,1,8-.72l63.83-36.27Z"/></svg>