<svg id="Layer_1" data-name="Layer 1" xmlns="http://www.w3.org/2000/svg" viewBox="0 0 600 192.4"><defs><style>.cls-1{fill:#4d4d4d;}.cls-2{fill:#fff;}</style></defs><rect class="cls-1" width="600" height="192.4" rx="32.07"/><g id="_Group_2" data-name=" Group 2"><g id="_Group_3" data-name=" Group 3"><path id="_Path_" data-name=" Path " class="cls-2" d="M128,95.67A24.74,24.74,0,0,1,139.79,74.9a25.34,25.34,0,0,0-20-10.79c-8.4-.89-16.54,5-20.82,5s-11-4.94-18.05-4.79A26.57,26.57,0,0,0,58.59,78c-9.68,16.75-2.46,41.37,6.8,54.9,4.64,6.63,10.06,14,17.15,13.78,6.94-.29,9.53-4.43,17.9-4.43s10.73,4.43,18,4.26c7.45-.12,12.14-6.66,16.61-13.35a54.88,54.88,0,0,0,7.6-15.47A23.92,23.92,0,0,1,128,95.67Z"/><path id="_Path_2" data-name=" Path 2" class="cls-2" d="M114.34,55.2a24.38,24.38,0,0,0,5.58-17.46,24.85,24.85,0,0,0-16,8.3,23.23,23.23,0,0,0-5.72,16.82A20.5,20.5,0,0,0,114.34,55.2Z"/></g></g><path class="cls-2" d="M198,87l-21.57,59.73h9.65l5.46-16.14h22.77l5.46,16.14h9.81L208,87Zm-4.1,36.14,8.9-26.2h.25l8.9,26.2Z"/><path class="cls-2" d="M257.84,102.68a15.47,15.47,0,0,0-13.87,7.7h-.16v-7.24h-8.66v58h8.94V139.52h.21a14.74,14.74,0,0,0,13.7,7.62c10.93,0,18.17-8.69,18.17-22.23S268.89,102.68,257.84,102.68ZM267,124.91c0,8.9-4.56,14.65-11.51,14.65s-11.43-5.87-11.43-14.65,4.6-14.61,11.43-14.61S267,116.1,267,124.91Z"/><path class="cls-2" d="M305.77,102.68a15.47,15.47,0,0,0-13.87,7.7h-.16v-7.24h-8.66v58H292V139.52h.21a14.74,14.74,0,0,0,13.7,7.62c10.93,0,18.18-8.69,18.18-22.23S316.82,102.68,305.77,102.68Zm-2.36,36.88c-6.83,0-11.43-5.87-11.43-14.65s4.6-14.61,11.43-14.61,11.51,5.8,11.51,14.61S310.36,139.56,303.41,139.56Z"/><path class="cls-2" d="M375.11,113l-6.58-1.62c-7.7-1.9-10.85-4.38-10.85-8.61,0-5.3,4.93-8.94,12.13-8.94s12.13,3.6,12.67,9.56h9C391.21,93,382.56,86,369.93,86S348.2,93,348.2,103.34c0,8.33,5.09,13.46,16.06,16.1l7.74,1.87c7.74,1.9,11,4.68,11,9.31,0,5.34-5.42,9.23-12.95,9.23-7.86,0-13.62-3.88-14.28-9.81h-9.15c.58,10.81,9.52,17.64,22.77,17.64,14.15,0,23.05-7,23.05-18.17C392.45,120.77,387.36,115.85,375.11,113Z"/><path class="cls-2" d="M411.75,92.83h-9v10.31h-6.33v7.08h6.33v25c0,8.44,3.44,11.75,12.25,11.75a24.35,24.35,0,0,0,5-.41v-7a29.05,29.05,0,0,1-2.94.21c-3.64,0-5.3-1.74-5.3-5.47v-24H420v-7.08h-8.28Z"/><path class="cls-2" d="M445.48,102.6c-12.59,0-20.66,8.61-20.66,22.31s8,22.31,20.66,22.31,20.65-8.57,20.65-22.31S458.1,102.6,445.48,102.6ZM457,124.91c0,9.44-4.31,14.94-11.55,14.94s-11.55-5.5-11.55-14.94S438.23,110,445.48,110,457,115.51,457,124.91Z"/><path class="cls-2" d="M482.24,110.55H482v-7.41H473.5v43.54h8.94V120.85a9.1,9.1,0,0,1-.05-1.38,9,9,0,0,1,9.37-8.63,12.37,12.37,0,0,1,4,.54V103a14.27,14.27,0,0,0-3.06-.33A10.39,10.39,0,0,0,482.24,110.55Z"/><path class="cls-2" d="M506.73,127.14h30.75v-3.06c0-13.2-7.57-21.48-19.62-21.48-12.25,0-20.16,8.86-20.16,22.52s7.87,22.1,20.54,22.1c9.85,0,17.54-5.42,18.75-13.33H528.5A9.86,9.86,0,0,1,518.44,140a11.36,11.36,0,0,1-11.71-12.34Zm0-6.34a11,11,0,0,1,11.09-11c.27,0,.54,0,.81,0a10.47,10.47,0,0,1,9.87,11H506.77Z"/><path class="cls-2" d="M206.31,56.26a13.15,13.15,0,0,0,.07-2.51A12.7,12.7,0,0,0,192.8,42H182.44V70.7H192.8C201.35,70.7,206.31,65.43,206.31,56.26ZM186.89,66.64V46.05h5.42a9.15,9.15,0,0,1,1.73.07,9,9,0,0,1,7.73,10.19,8.92,8.92,0,0,1,.08,1.86,9,9,0,0,1-9.54,8.47Z"/><path class="cls-2" d="M231.77,57.9a10.26,10.26,0,0,0-20.43,2,11,11,0,0,0,0,2,10.26,10.26,0,0,0,20.43-2A10.69,10.69,0,0,0,231.77,57.9Zm-10.21,9.41c-3.71,0-5.8-2.72-5.8-7.45s2.09-7.44,5.8-7.44,5.81,2.74,5.81,7.44h0C227.37,64.57,225.27,67.31,221.56,67.31Z"/><polygon class="cls-2" points="245.22 70.69 249.68 54.74 250.01 54.74 254.49 70.69 258.93 70.69 264.87 49.04 260.6 49.04 256.74 65.56 256.4 65.56 251.95 49.04 247.84 49.04 243.39 65.56 243.07 65.56 239.19 49.04 234.86 49.04 240.83 70.69 245.22 70.69"/><path class="cls-2" d="M284,70.7h4.28v-14a7.29,7.29,0,0,0,0-1.55,7,7,0,0,0-7.55-6.5,6.46,6.46,0,0,0-6.46,3.86H274V49h-4.12V70.7h4.28V58a3.76,3.76,0,0,1,0-.75,5,5,0,0,1,5.19-4.73c3.16,0,4.67,1.73,4.67,5.21Z"/><rect class="cls-2" x="295.1" y="40.58" width="4.27" height="30.11"/><path class="cls-2" d="M325.75,57.9a10.27,10.27,0,0,0-20.44,2,10.91,10.91,0,0,0,0,2,10.27,10.27,0,1,0,20.44-2A10.69,10.69,0,0,0,325.75,57.9Zm-10.21,9.41c-3.72,0-5.81-2.72-5.81-7.45s2.09-7.44,5.81-7.44,5.81,2.74,5.81,7.44S319.24,67.31,315.54,67.31Z"/><path class="cls-2" d="M348.42,70.7V55.9c0-4.58-3.06-7.28-8.49-7.28-4.91,0-8.41,2.38-8.85,6.11h4.14c.47-1.54,2.13-2.41,4.51-2.41,2.93,0,4.44,1.29,4.44,3.58v1.87l-5.87.33c-5.15.32-8.05,2.57-8.05,6.47,0,.22,0,.44,0,.65a6.53,6.53,0,0,0,7.18,5.83,7.3,7.3,0,0,0,6.51-3.4h.34v3Zm-4.25-8c0,.06,0,.11,0,.17a5.1,5.1,0,0,1-5.59,4.56c-2.33,0-4-1.13-4-3.08s1.36-2.92,4.34-3.12l5.29-.34Z"/><path class="cls-2" d="M363,71.05a7.5,7.5,0,0,0,6.8-3.78h.34V70.7h4.1V40.58H370v11.9h-.32a7.13,7.13,0,0,0-6.64-3.8c-5.47,0-9,4.33-9,11.18S357.52,71.05,363,71.05Zm1.21-18.53c3.58,0,5.83,2.84,5.83,7.36s-2.22,7.33-5.83,7.33-5.78-2.76-5.78-7.35h0C358.46,55.3,360.65,52.52,364.24,52.52Z"/><path class="cls-2" d="M403.16,71.07a10.27,10.27,0,0,0,9.22-11.21,10.69,10.69,0,0,0,0-2,10.26,10.26,0,0,0-20.43,2,11,11,0,0,0,0,2A10.27,10.27,0,0,0,403.16,71.07Zm-6.79-11.21c0-4.7,2.09-7.44,5.8-7.44S408,55.16,408,59.86s-2.11,7.45-5.81,7.45S396.37,64.59,396.37,59.86Z"/><path class="cls-2" d="M427.56,52.54c3.16,0,4.67,1.73,4.67,5.21v13h4.28v-14a7.29,7.29,0,0,0,.06-1.55,7.06,7.06,0,0,0-7.56-6.5,6.47,6.47,0,0,0-6.46,3.86h-.32V49h-4.11V70.7h4.27V58a4.7,4.7,0,0,1,0-.75A5,5,0,0,1,427.56,52.54Z"/><path class="cls-2" d="M456.38,65c0,4.17,1.9,5.85,6.65,5.85a14.94,14.94,0,0,0,2.32-.22V67a14.7,14.7,0,0,1-1.63.09c-2.12,0-3.06-1-3.06-3.26V52.74h4.69v-3.6h-4.69v-5.5h-4.28v5.5h-3.44v3.6h3.44Z"/><path class="cls-2" d="M475.47,58.05a5,5,0,0,1,5.45-5.5c3,0,4.63,1.76,4.63,5.22V70.7h4.28v-14a6.65,6.65,0,0,0,.05-1.34,7.12,7.12,0,0,0-7.51-6.73,6.64,6.64,0,0,0-6.6,3.88h-.34V40.58h-4.24V70.7h4.28Z"/><path class="cls-2" d="M505.37,71.11a8.78,8.78,0,0,0,9.38-6.26h-4.11a5.19,5.19,0,0,1-5.15,2.62,3.37,3.37,0,0,1-.55,0,5.71,5.71,0,0,1-5.22-6.18V61H515V59.54c0-6.8-3.63-10.92-9.66-10.92a8.35,8.35,0,0,0-1.41.09,10,10,0,0,0-8.57,11.22,8.7,8.7,0,0,0-.09,1.61A9.83,9.83,0,0,0,505.37,71.11Zm0-18.85a4.13,4.13,0,0,1,.5,0,5.23,5.23,0,0,1,4.83,5.6H499.72v-.14A5.54,5.54,0,0,1,505.33,52.26Z"/></svg>